# baseMeshMesh
mtllib jibomtl.mtl
usemtl jibo_base
v -0.01200098 -0.00542735 -0.07582985
v -0.011155699 -0.01897909 -0.07046734
v -0.02371593 -0.00542735 -0.07299854
v -0.02204569 -0.01897909 -0.06784035
v 2.4e-07 -0.01897909 -0.07137112
v 0.0 -0.00542735 -0.07680428
v -0.034858797 -0.00542735 -0.06840225
v -0.03240385 -0.01897909 -0.06357384
v -0.04514359 -0.00542735 -0.06213291
v -0.04196434 -0.01897909 -0.057751577
v -0.06842106 -0.00542735 0.034825187
v -0.06360165 -0.01897909 0.03237221
v -0.062102698 -0.00542735 0.045097616
v -0.057728346 -0.01897909 0.041921157
v -0.06791512 -0.01897909 0.02204163
v -0.073061325 -0.00542735 0.02371189
v -0.050460618 -0.01897909 0.05045914
v -0.054284208 -0.00542735 0.05428246
v -0.04514359 -0.00542735 0.06213291
v -0.041963875 -0.01897909 0.05775669
v -0.034858797 -0.00542735 0.06840225
v -0.03240355 -0.01897909 0.06358456
v -0.02371593 -0.00542735 0.07299854
v -0.02204552 -0.01897909 0.067857206
v -0.01115566 -0.01897909 0.0704892
v -0.01200098 -0.00542735 0.07582985
v 0.0 -0.00542735 0.07680428
v 1.2e-07 -0.01897909 0.07139511
v -0.07584549 -0.00542735 0.01200448
v -0.07050335 -0.01897909 0.01115876
v -0.07136627 -0.01897909 -2.3e-07
v -0.076773524 -0.00542735 0.0
v -0.07050381 -0.01897909 -0.01115922
v -0.07584549 -0.00542735 -0.01200448
v -0.06791592 -0.01897909 -0.022042079
v -0.073061325 -0.00542735 -0.02371189
v 0.01200098 -0.00542735 0.07582985
v 0.01115594 -0.01897909 0.07048946
v 0.02371593 -0.00542735 0.07299854
v 0.022045778 -0.01897909 0.06785762
v 0.03240358 -0.01897909 0.06358504
v 0.034858797 -0.00542735 0.06840225
v 0.04514359 -0.00542735 0.06213291
v 0.041963346 -0.01897909 0.057757065
v 0.06842106 -0.00542735 -0.034825187
v 0.06359753 -0.01897909 -0.032371808
v 0.062102698 -0.00542735 -0.045097616
v 0.057725865 -0.01897909 -0.041920807
v 0.067909546 -0.01897909 -0.022040939
v 0.073061325 -0.00542735 -0.02371189
v 0.050459668 -0.01897909 -0.05045784
v 0.054284208 -0.00542735 -0.05428246
v 0.04514359 -0.00542735 -0.06213291
v 0.04196407 -0.01897909 -0.05775257
v 0.05772533 -0.01897909 0.041920662
v 0.06359718 -0.01897909 0.03237135
v 0.062102698 -0.00542735 0.045097616
v 0.06842106 -0.00542735 0.034825187
v 0.073061325 -0.00542735 0.02371189
v 0.06790936 -0.01897909 0.02204069
v 0.054284208 -0.00542735 0.05428246
v 0.05045898 -0.01897909 0.050459098
v 0.07584549 -0.00542735 -0.01200448
v 0.07049671 -0.01897909 -0.011158381
v 0.0713591 -0.01897909 -2e-08
v 0.076773524 -0.00542735 0.0
v 0.07584549 -0.00542735 0.01200448
v 0.07049667 -0.01897909 0.011158289
v -0.054284208 -0.00542735 -0.05428246
v -0.05046124 -0.01897909 -0.05045734
v -0.062102698 -0.00542735 -0.045097616
v -0.057729147 -0.01897909 -0.04192108
v -0.06842106 -0.00542735 -0.034825187
v -0.06360256 -0.01897909 -0.03237267
v 0.034858797 -0.00542735 -0.06840225
v 0.03240427 -0.01897909 -0.06357494
v 0.02371593 -0.00542735 -0.07299854
v 0.02204632 -0.01897909 -0.067841254
v 0.0 -0.00542735 -0.07680428
v 0.01200098 -0.00542735 -0.07582985
v 2.4e-07 -0.01897909 -0.07137112
v 0.011156259 -0.01897909 -0.07046787
vn -0.148069 -0.371898 -0.916388
vn -0.148108 -0.371778 -0.916431
vn -0.287845 -0.371543 -0.882667
vn -0.287756 -0.37136 -0.882773
vn -1.2e-05 -0.372047 -0.928214
vn -1e-06 -0.372126 -0.928182
vn -0.419817 -0.371168 -0.828244
vn -0.419548 -0.371153 -0.828387
vn -0.545998 -0.370953 -0.751186
vn -0.545876 -0.370991 -0.751256
vn -0.826106 -0.370623 0.424484
vn -0.826018 -0.370622 0.424657
vn -0.751433 -0.370521 0.545951
vn -0.75143 -0.370522 0.545955
vn -0.883151 -0.370784 0.287339
vn -0.883158 -0.370787 0.287312
vn -0.659095 -0.370591 0.654413
vn -0.658967 -0.370588 0.654543
vn -0.546061 -0.370724 0.751253
vn -0.54607 -0.370724 0.751247
vn -0.419122 -0.370597 0.828851
vn -0.418974 -0.370593 0.828928
vn -0.287048 -0.370515 0.883358
vn -0.287053 -0.370515 0.883357
vn -0.148377 -0.370589 0.916869
vn -0.148199 -0.370586 0.916899
vn -0.0 -0.370709 0.928749
vn -6e-06 -0.370708 0.928749
vn -0.917746 -0.370681 0.142612
vn -0.917772 -0.370674 0.142462
vn -0.928794 -0.370596 1.9e-05
vn -0.928794 -0.370597 8e-06
vn -0.917785 -0.370651 -0.14244
vn -0.917761 -0.370645 -0.142607
vn -0.883172 -0.370735 -0.287336
vn -0.883179 -0.370734 -0.287318
vn 0.148194 -0.370572 0.916905
vn 0.148364 -0.370568 0.916879
vn 0.287048 -0.37049 0.883369
vn 0.287052 -0.370487 0.883369
vn 0.418992 -0.370566 0.828931
vn 0.419132 -0.370577 0.828855
vn 0.546063 -0.370725 0.751251
vn 0.546092 -0.370735 0.751225
vn 0.82603 -0.370876 -0.424412
vn 0.825987 -0.370825 -0.424541
vn 0.751408 -0.370667 -0.545887
vn 0.751436 -0.370652 -0.545858
vn 0.883046 -0.371102 -0.28725
vn 0.883036 -0.371113 -0.287268
vn 0.659038 -0.370695 -0.654411
vn 0.658919 -0.370707 -0.654524
vn 0.546009 -0.370915 -0.751196
vn 0.545911 -0.370966 -0.751242
vn 0.751444 -0.370684 0.545826
vn 0.825972 -0.370855 0.424544
vn 0.75141 -0.370684 0.545872
vn 0.826018 -0.370903 0.424412
vn 0.88303 -0.371128 0.287267
vn 0.883038 -0.371118 0.287256
vn 0.658967 -0.370641 0.654513
vn 0.659119 -0.370685 0.654335
vn 0.917601 -0.371055 -0.14257
vn 0.917622 -0.371074 -0.142388
vn 0.928625 -0.37102 2e-06
vn 0.928628 -0.371012 1e-06
vn 0.917598 -0.371062 0.142573
vn 0.91762 -0.371076 0.142396
vn -0.658908 -0.370684 -0.654549
vn -0.658997 -0.370619 -0.654496
vn -0.751423 -0.370501 -0.545978
vn -0.751403 -0.370486 -0.546016
vn -0.826128 -0.370565 -0.424493
vn -0.826035 -0.370568 -0.424671
vn 0.419833 -0.371109 -0.828263
vn 0.419574 -0.371083 -0.828405
vn 0.287845 -0.371487 -0.88269
vn 0.287747 -0.371296 -0.882803
vn -1e-06 -0.372126 -0.928182
vn 0.148061 -0.371871 -0.916401
vn -1.2e-05 -0.372047 -0.928214
vn 0.148081 -0.371734 -0.916453
vt 0.834733 0.06682
vt 0.834734 0.059732
vt 0.838778 0.06682
vt 0.83878 0.059732
vt 0.830689 0.059732
vt 0.830689 0.06682
vt 0.842824 0.06682
vt 0.842825 0.059732
vt 0.84687 0.06682
vt 0.846871 0.059732
vt 0.883268 0.06682
vt 0.883268 0.059732
vt 0.887316 0.06682
vt 0.887316 0.059732
vt 0.879223 0.059732
vt 0.879223 0.06682
vt 0.891364 0.059732
vt 0.891364 0.06682
vt 0.895411 0.06682
vt 0.895411 0.059732
vt 0.899458 0.06682
vt 0.899458 0.059732
vt 0.903503 0.06682
vt 0.903503 0.059732
vt 0.907548 0.059732
vt 0.907548 0.06682
vt 0.911593 0.06682
vt 0.911593 0.059732
vt 0.875181 0.06682
vt 0.875181 0.059732
vt 0.871141 0.059732
vt 0.871141 0.06682
vt 0.8671 0.059732
vt 0.8671 0.06682
vt 0.863059 0.059732
vt 0.863059 0.06682
vt 0.915637 0.06682
vt 0.915637 0.059732
vt 0.919682 0.06682
vt 0.919682 0.059732
vt 0.923728 0.059732
vt 0.923728 0.06682
vt 0.927774 0.06682
vt 0.927774 0.059732
vt 0.964172 0.06682
vt 0.964173 0.059732
vt 0.96822 0.06682
vt 0.96822 0.059732
vt 0.960127 0.059732
vt 0.960127 0.06682
vt 0.972268 0.059732
vt 0.972268 0.06682
vt 0.976315 0.06682
vt 0.976315 0.059732
vt 0.93587 0.059732
vt 0.939917 0.059732
vt 0.93587 0.06682
vt 0.939917 0.06682
vt 0.943963 0.06682
vt 0.943962 0.059732
vt 0.931822 0.06682
vt 0.931821 0.059732
vt 0.956085 0.06682
vt 0.956085 0.059732
vt 0.952045 0.059732
vt 0.952045 0.06682
vt 0.948004 0.06682
vt 0.948004 0.059732
vt 0.850918 0.06682
vt 0.850918 0.059732
vt 0.854966 0.06682
vt 0.854966 0.059732
vt 0.859013 0.06682
vt 0.859013 0.059732
vt 0.980362 0.06682
vt 0.98036 0.059732
vt 0.984407 0.06682
vt 0.984406 0.059732
vt 0.992497 0.06682
vt 0.988452 0.06682
vt 0.992497 0.059732
vt 0.988451 0.059732
f 1/1/1 2/2/2 3/3/3
f 3/3/3 2/2/2 4/4/4
f 2/2/2 1/1/1 5/5/5
f 5/5/5 1/1/1 6/6/6
f 3/3/3 4/4/4 7/7/7
f 7/7/7 4/4/4 8/8/8
f 9/9/9 7/7/7 10/10/10
f 10/10/10 7/7/7 8/8/8
f 11/11/11 12/12/12 13/13/13
f 13/13/13 12/12/12 14/14/14
f 12/12/12 11/11/11 15/15/15
f 15/15/15 11/11/11 16/16/16
f 14/14/14 17/17/17 13/13/13
f 13/13/13 17/17/17 18/18/18
f 19/19/19 18/18/18 20/20/20
f 20/20/20 18/18/18 17/17/17
f 19/19/19 20/20/20 21/21/21
f 21/21/21 20/20/20 22/22/22
f 21/21/21 22/22/22 23/23/23
f 23/23/23 22/22/22 24/24/24
f 24/24/24 25/25/25 23/23/23
f 23/23/23 25/25/25 26/26/26
f 27/27/27 26/26/26 28/28/28
f 28/28/28 26/26/26 25/25/25
f 16/16/16 29/29/29 15/15/15
f 15/15/15 29/29/29 30/30/30
f 31/31/31 30/30/30 32/32/32
f 32/32/32 30/30/30 29/29/29
f 31/31/31 32/32/32 33/33/33
f 33/33/33 32/32/32 34/34/34
f 33/33/33 34/34/34 35/35/35
f 35/35/35 34/34/34 36/36/36
f 27/27/27 28/28/28 37/37/37
f 37/37/37 28/28/28 38/38/38
f 37/37/37 38/38/38 39/39/39
f 39/39/39 38/38/38 40/40/40
f 40/40/40 41/41/41 39/39/39
f 39/39/39 41/41/41 42/42/42
f 43/43/43 42/42/42 44/44/44
f 44/44/44 42/42/42 41/41/41
f 45/45/45 46/46/46 47/47/47
f 47/47/47 46/46/46 48/48/48
f 46/46/46 45/45/45 49/49/49
f 49/49/49 45/45/45 50/50/50
f 48/48/48 51/51/51 47/47/47
f 47/47/47 51/51/51 52/52/52
f 53/53/53 52/52/52 54/54/54
f 54/54/54 52/52/52 51/51/51
f 55/55/55 56/56/56 57/57/57
f 57/57/57 56/56/56 58/58/58
f 59/59/59 58/58/58 60/60/60
f 60/60/60 58/58/58 56/56/56
f 43/43/43 44/44/44 61/61/61
f 61/61/61 44/44/44 62/62/62
f 55/55/55 57/57/57 62/62/62
f 62/62/62 57/57/57 61/61/61
f 50/50/50 63/63/63 49/49/49
f 49/49/49 63/63/63 64/64/64
f 65/65/65 64/64/64 66/66/66
f 66/66/66 64/64/64 63/63/63
f 59/59/59 60/60/60 67/67/67
f 67/67/67 60/60/60 68/68/68
f 65/65/65 66/66/66 68/68/68
f 68/68/68 66/66/66 67/67/67
f 9/9/9 10/10/10 69/69/69
f 69/69/69 10/10/10 70/70/70
f 69/69/69 70/70/70 71/71/71
f 71/71/71 70/70/70 72/72/72
f 36/36/36 73/73/73 35/35/35
f 35/35/35 73/73/73 74/74/74
f 72/72/72 74/74/74 71/71/71
f 71/71/71 74/74/74 73/73/73
f 53/53/53 54/54/54 75/75/75
f 75/75/75 54/54/54 76/76/76
f 77/77/77 75/75/75 78/78/78
f 78/78/78 75/75/75 76/76/76
f 79/79/79 80/80/80 81/81/81
f 81/81/81 80/80/80 82/82/82
f 78/78/78 82/82/82 77/77/77
f 77/77/77 82/82/82 80/80/80
