# lightringMeshMesh
mtllib jibomtl.mtl
usemtl jibo_lightring
v -0.06891143 0.03576159 -0.05389355
v -0.060103 0.0334288 -0.06399803
v -0.06891143 0.03149464 -0.05290844
v -0.060103 0.02916183 -0.06301292
v -0.049756467 0.02717163 -0.07163338
v -0.049756467 0.0314386 -0.07261848
v -0.08100593 0.04116817 -0.030475011
v -0.07592758 0.03837849 -0.04255856
v -0.08100593 0.036901228 -0.029489879
v -0.07592758 0.03411152 -0.041573446
v -0.084972836 0.0469054 -0.0056243497
v -0.08400145 0.04401943 -0.018124899
v -0.084972836 0.04263844 -0.0046392297
v -0.08400145 0.039752457 -0.01713979
v -0.08097381 0.05265812 0.01929329
v -0.08397918 0.04979931 0.00691048
v -0.08097381 0.048391152 0.02027842
v -0.08397918 0.04553234 0.00789559
v -0.068925016 0.058041107 0.04260963
v -0.07590996 0.055438798 0.031337798
v -0.068925016 0.053774152 0.04359474
v -0.07590996 0.05117184 0.032322917
v -0.04983219 0.062351987 0.06128208
v -0.06015652 0.06036476 0.05267448
v -0.04983219 0.05808502 0.062267188
v -0.06015652 0.056097787 0.05365959
v -0.025709989 0.06510403 0.073202364
v -0.03818005 0.06394505 0.06818226
v -0.025709989 0.06083702 0.074187465
v -0.03818005 0.059678078 0.06916732
v -0.0 0.06601315 0.077140264
v -0.012931979 0.065789066 0.07616982
v 0.0 0.061746176 0.078125454
v -0.012931979 0.0615221 0.07715492
v 0.025709989 0.06510403 0.073202364
v 0.012931979 0.065789066 0.07616982
v 0.025709989 0.06083702 0.074187465
v 0.012931979 0.0615221 0.07715492
v 0.04983219 0.062351987 0.06128208
v 0.03818005 0.06394505 0.06818226
v 0.04983219 0.05808502 0.062267188
v 0.03818005 0.059678078 0.06916732
v 0.068925016 0.058041107 0.04260963
v 0.06015652 0.06036476 0.05267448
v 0.068925016 0.053774152 0.04359474
v 0.06015652 0.056097787 0.05365959
v 0.08097381 0.05265812 0.01929329
v 0.07590996 0.055438798 0.031337798
v 0.08097381 0.048391152 0.02027842
v 0.07590996 0.05117184 0.032322917
v 0.084972836 0.0469054 -0.0056243497
v 0.08397918 0.04979931 0.00691048
v 0.084972836 0.04263844 -0.0046392297
v 0.08397918 0.04553234 0.00789559
v 0.08100593 0.04116817 -0.030475011
v 0.08400145 0.04401943 -0.018124899
v 0.08100593 0.036901228 -0.029489879
v 0.08400145 0.039752457 -0.01713979
v 0.06891143 0.03576159 -0.05389355
v 0.07592758 0.03837849 -0.04255856
v 0.06891143 0.03149464 -0.05290844
v 0.07592758 0.03411152 -0.041573446
v 0.049756467 0.0314386 -0.07261848
v 0.060103 0.0334288 -0.06399803
v 0.049756467 0.02717163 -0.07163338
v 0.060103 0.02916183 -0.06301292
v 0.0256904 0.02869629 -0.084496774
v 0.038126256 0.02984955 -0.07950134
v 0.0256904 0.024429318 -0.08351166
v 0.038126256 0.02558258 -0.07851631
v -0.0 0.02778955 -0.08842421
v 0.01292706 0.028013378 -0.08745468
v 0.0 0.02352259 -0.087439194
v 0.01292706 0.02374643 -0.08646965
v -0.0256904 0.02869629 -0.084496774
v -0.01292706 0.028013378 -0.08745468
v -0.0256904 0.024429318 -0.08351166
v -0.01292706 0.02374643 -0.08646965
v -0.038126256 0.02558258 -0.07851631
v -0.038126256 0.02984955 -0.07950134
vn -0.811847 -0.131342 -0.568906
vn -0.708258 -0.158806 -0.68786
vn -0.811847 -0.131342 -0.568906
vn -0.708258 -0.158806 -0.68786
vn -0.586437 -0.182209 -0.789234
vn -0.586437 -0.182208 -0.789235
vn -0.951878 -0.068945 -0.298623
vn -0.893276 -0.101117 -0.437987
vn -0.951878 -0.068944 -0.298622
vn -0.893276 -0.101116 -0.437987
vn -1.0 0.000195 0.000845
vn -0.988119 -0.034574 -0.149752
vn -1.0 0.000195 0.000845
vn -0.988119 -0.034574 -0.149751
vn -0.951906 0.068924 0.298536
vn -0.987993 0.034755 0.150539
vn -0.951906 0.068924 0.298537
vn -0.987993 0.034755 0.150539
vn -0.811764 0.131369 0.569018
vn -0.89317 0.101167 0.438192
vn -0.811764 0.131369 0.569018
vn -0.89317 0.101168 0.438193
vn -0.586551 0.18219 0.789154
vn -0.708414 0.15877 0.687707
vn -0.586551 0.18219 0.789154
vn -0.708414 0.15877 0.687707
vn -0.308815 0.213954 0.926745
vn -0.452315 0.200618 0.869001
vn -0.308815 0.213954 0.926746
vn -0.452316 0.200617 0.869001
vn 0.0 0.224967 0.974366
vn -0.155291 0.222224 0.96255
vn 0.0 0.224964 0.974367
vn -0.155291 0.222222 0.96255
vn 0.308814 0.213954 0.926745
vn 0.155291 0.222224 0.96255
vn 0.308815 0.213954 0.926746
vn 0.155291 0.222222 0.96255
vn 0.586551 0.182191 0.789154
vn 0.452315 0.200619 0.869001
vn 0.586551 0.18219 0.789154
vn 0.452316 0.200617 0.869001
vn 0.811764 0.131369 0.569018
vn 0.708414 0.15877 0.687707
vn 0.811764 0.131369 0.569018
vn 0.708414 0.15877 0.687707
vn 0.951906 0.068925 0.298536
vn 0.89317 0.101166 0.438192
vn 0.951906 0.068924 0.298537
vn 0.89317 0.101167 0.438193
vn 1.0 0.000195 0.000845
vn 0.987993 0.034754 0.150539
vn 1.0 0.000195 0.000845
vn 0.987993 0.034754 0.150539
vn 0.951878 -0.068944 -0.298623
vn 0.988119 -0.034574 -0.149751
vn 0.951878 -0.068944 -0.298622
vn 0.988119 -0.034574 -0.149751
vn 0.811847 -0.131342 -0.568906
vn 0.893276 -0.101117 -0.437987
vn 0.811847 -0.131342 -0.568906
vn 0.893276 -0.101117 -0.437987
vn 0.586436 -0.18221 -0.789235
vn 0.708258 -0.158806 -0.68786
vn 0.586436 -0.182208 -0.789236
vn 0.708258 -0.158806 -0.68786
vn 0.308158 -0.214004 -0.926953
vn 0.451884 -0.200662 -0.869216
vn 0.308158 -0.214001 -0.926953
vn 0.451883 -0.200659 -0.869217
vn 0.0 -0.224935 -0.974374
vn 0.155004 -0.222218 -0.962597
vn 0.0 -0.224935 -0.974374
vn 0.155004 -0.222217 -0.962597
vn -0.308158 -0.214004 -0.926953
vn -0.155004 -0.222218 -0.962597
vn -0.308158 -0.214001 -0.926953
vn -0.155004 -0.222217 -0.962597
vn -0.451881 -0.200661 -0.869217
vn -0.451882 -0.200661 -0.869217
vt 0.990209 0.053959
vt 0.990209 0.053926
vt 0.990209 0.053959
vt 0.990209 0.053926
vt 0.990209 0.053894
vt 0.990209 0.053894
vt 0.990209 0.054023
vt 0.990209 0.053991
vt 0.990209 0.054023
vt 0.990209 0.053991
vt 0.990209 0.054085
vt 0.990209 0.054054
vt 0.990209 0.054085
vt 0.990209 0.054054
vt 0.990209 0.054149
vt 0.990209 0.054117
vt 0.990209 0.054149
vt 0.990209 0.054117
vt 0.990209 0.054215
vt 0.990209 0.054182
vt 0.990209 0.054215
vt 0.990209 0.054182
vt 0.990209 0.054282
vt 0.990209 0.054249
vt 0.990209 0.054282
vt 0.990209 0.054249
vt 0.990209 0.05435
vt 0.990209 0.054316
vt 0.990209 0.05435
vt 0.990209 0.054316
vt 0.990209 0.054398
vt 0.990209 0.054382
vt 0.990209 0.054398
vt 0.990209 0.054382
vt 0.990209 0.05435
vt 0.990209 0.054382
vt 0.990209 0.05435
vt 0.990209 0.054382
vt 0.990209 0.054282
vt 0.990209 0.054316
vt 0.990209 0.054282
vt 0.990209 0.054316
vt 0.990209 0.054215
vt 0.990209 0.054249
vt 0.990209 0.054215
vt 0.990209 0.054249
vt 0.990209 0.054149
vt 0.990209 0.054182
vt 0.990209 0.054149
vt 0.990209 0.054182
vt 0.990209 0.054085
vt 0.990209 0.054117
vt 0.990209 0.054085
vt 0.990209 0.054117
vt 0.990209 0.054023
vt 0.990209 0.054054
vt 0.990209 0.054023
vt 0.990209 0.054054
vt 0.990209 0.053959
vt 0.990209 0.053991
vt 0.990209 0.053959
vt 0.990209 0.053991
vt 0.990209 0.053894
vt 0.990209 0.053926
vt 0.990209 0.053894
vt 0.990209 0.053926
vt 0.990209 0.05383
vt 0.990209 0.053862
vt 0.990209 0.05383
vt 0.990209 0.053862
vt 0.990209 0.053783
vt 0.990209 0.053798
vt 0.990209 0.053783
vt 0.990209 0.053798
vt 0.990209 0.05383
vt 0.990209 0.053798
vt 0.990209 0.05383
vt 0.990209 0.053798
vt 0.990209 0.053862
vt 0.990209 0.053862
f 1/1/1 2/2/2 3/3/3
f 3/3/3 2/2/2 4/4/4
f 5/5/5 4/4/4 6/6/6
f 6/6/6 4/4/4 2/2/2
f 7/7/7 8/8/8 9/9/9
f 9/9/9 8/8/8 10/10/10
f 1/1/1 3/3/3 8/8/8
f 8/8/8 3/3/3 10/10/10
f 11/11/11 12/12/12 13/13/13
f 13/13/13 12/12/12 14/14/14
f 7/7/7 9/9/9 12/12/12
f 12/12/12 9/9/9 14/14/14
f 15/15/15 16/16/16 17/17/17
f 17/17/17 16/16/16 18/18/18
f 11/11/11 13/13/13 16/16/16
f 16/16/16 13/13/13 18/18/18
f 19/19/19 20/20/20 21/21/21
f 21/21/21 20/20/20 22/22/22
f 15/15/15 17/17/17 20/20/20
f 20/20/20 17/17/17 22/22/22
f 23/23/23 24/24/24 25/25/25
f 25/25/25 24/24/24 26/26/26
f 19/19/19 21/21/21 24/24/24
f 24/24/24 21/21/21 26/26/26
f 27/27/27 28/28/28 29/29/29
f 29/29/29 28/28/28 30/30/30
f 23/23/23 25/25/25 28/28/28
f 28/28/28 25/25/25 30/30/30
f 31/31/31 32/32/32 33/33/33
f 33/33/33 32/32/32 34/34/34
f 27/27/27 29/29/29 32/32/32
f 32/32/32 29/29/29 34/34/34
f 35/35/35 36/36/36 37/37/37
f 37/37/37 36/36/36 38/38/38
f 31/31/31 33/33/33 36/36/36
f 36/36/36 33/33/33 38/38/38
f 39/39/39 40/40/40 41/41/41
f 41/41/41 40/40/40 42/42/42
f 35/35/35 37/37/37 40/40/40
f 40/40/40 37/37/37 42/42/42
f 43/43/43 44/44/44 45/45/45
f 45/45/45 44/44/44 46/46/46
f 39/39/39 41/41/41 44/44/44
f 44/44/44 41/41/41 46/46/46
f 47/47/47 48/48/48 49/49/49
f 49/49/49 48/48/48 50/50/50
f 43/43/43 45/45/45 48/48/48
f 48/48/48 45/45/45 50/50/50
f 51/51/51 52/52/52 53/53/53
f 53/53/53 52/52/52 54/54/54
f 47/47/47 49/49/49 52/52/52
f 52/52/52 49/49/49 54/54/54
f 55/55/55 56/56/56 57/57/57
f 57/57/57 56/56/56 58/58/58
f 51/51/51 53/53/53 56/56/56
f 56/56/56 53/53/53 58/58/58
f 59/59/59 60/60/60 61/61/61
f 61/61/61 60/60/60 62/62/62
f 55/55/55 57/57/57 60/60/60
f 60/60/60 57/57/57 62/62/62
f 63/63/63 64/64/64 65/65/65
f 65/65/65 64/64/64 66/66/66
f 59/59/59 61/61/61 64/64/64
f 64/64/64 61/61/61 66/66/66
f 67/67/67 68/68/68 69/69/69
f 69/69/69 68/68/68 70/70/70
f 63/63/63 65/65/65 68/68/68
f 68/68/68 65/65/65 70/70/70
f 71/71/71 72/72/72 73/73/73
f 73/73/73 72/72/72 74/74/74
f 67/67/67 69/69/69 72/72/72
f 72/72/72 69/69/69 74/74/74
f 75/75/75 76/76/76 77/77/77
f 77/77/77 76/76/76 78/78/78
f 71/71/71 73/73/73 76/76/76
f 76/76/76 73/73/73 78/78/78
f 5/5/5 6/6/6 79/79/79
f 79/79/79 6/6/6 80/80/80
f 75/75/75 77/77/77 80/80/80
f 80/80/80 77/77/77 79/79/79
