# maskMeshMesh
mtllib jibomtl.mtl
usemtl jibo_mask
v -0.017771129 0.182247 -0.011145039
v 0.0 0.18391998 -0.01057547
v -0.01084527 0.13229202 -0.02815074
v 0.0 0.13229202 -0.02815074
v -0.03486586 0.17735474 -0.01281044
v -0.022584058 0.13229202 -0.02815074
v -0.050607827 0.16937134 -0.01552831
v -0.03486586 0.17735474 -0.01281044
v -0.03643089 0.13229202 -0.02815073
v -0.022584058 0.13229202 -0.02815074
v -0.06495148 0.09767013 -0.039937317
v -0.0911087 0.09767196 -0.03993668
v -0.064972036 0.10990631 -0.03577181
v -0.089341275 0.11449508 -0.03420967
v -0.089341275 0.080849 -0.045663718
v -0.06493122 0.085445404 -0.044098966
v -0.022584058 0.06304824 -0.05172359
v -0.034865778 0.01798935 -0.06706291
v -0.03643093 0.06304824 -0.05172359
v -0.05060772 0.025972899 -0.064345084
v -0.08417351 0.064666286 -0.051172752
v -0.06490921 0.07222015 -0.04860123
v -0.050700948 0.06304824 -0.05172359
v -0.0644236 0.03668549 -0.060698196
v -0.064895056 0.06304824 -0.05172359
v -0.0757399 0.04976425 -0.05624584
v -0.0757399 0.04976425 -0.05624584
v -0.064895056 0.06304824 -0.05172359
v -0.06442364 0.1586586 -0.019175168
v -0.05070087 0.13229202 -0.028150748
v -0.0757399 0.14557983 -0.023627529
v -0.06442364 0.1586586 -0.019175168
v -0.065009646 0.13229187 -0.02815146
v -0.05070087 0.13229202 -0.028150748
v -0.064994276 0.123157196 -0.0312608
v -0.08417351 0.13067764 -0.02870062
v -0.0757399 0.14557983 -0.023627529
v -0.065009646 0.13229187 -0.02815146
v 0.01084527 0.13229202 -0.02815074
v 0.017771129 0.182247 -0.011145039
v 0.022584058 0.13229202 -0.02815074
v 0.03486586 0.17735474 -0.01281044
v 0.022584058 0.13229202 -0.02815074
v 0.03486586 0.17735474 -0.01281044
v 0.03643089 0.13229202 -0.02815073
v 0.050607827 0.16937134 -0.01552831
v 0.06495148 0.09767013 -0.039937317
v 0.064972036 0.10990631 -0.03577181
v 0.0911087 0.09767196 -0.03993668
v 0.089341275 0.11449508 -0.03420967
v 0.06493122 0.085445404 -0.044098966
v 0.089341275 0.080849 -0.045663718
v 0.022584058 0.06304824 -0.05172359
v 0.03643093 0.06304824 -0.05172359
v 0.034865778 0.01798935 -0.06706291
v 0.05060772 0.025972899 -0.064345084
v 0.06490921 0.07222015 -0.04860123
v 0.08417351 0.064666286 -0.051172752
v 0.0757399 0.04976425 -0.05624584
v 0.0644236 0.03668549 -0.060698196
v 0.06489399 0.06304824 -0.05172359
v 0.050700948 0.06304824 -0.05172359
v 0.06489399 0.06304824 -0.05172359
v 0.0757399 0.04976425 -0.05624584
v 0.05070087 0.13229202 -0.028150748
v 0.06442364 0.1586586 -0.019175168
v 0.0757399 0.14557983 -0.023627529
v 0.065009646 0.13229187 -0.02815146
v 0.06442364 0.1586586 -0.019175168
v 0.05070087 0.13229202 -0.028150748
v 0.08417351 0.13067764 -0.02870062
v 0.064994276 0.123157196 -0.0312608
v 0.065009646 0.13229187 -0.02815146
v 0.0757399 0.14557983 -0.023627529
v -0.010845259 0.06304824 -0.05172359
v -0.017771069 0.01309723 -0.06872833
v 0.010845259 0.06304824 -0.05172359
v 0.017771069 0.01309723 -0.06872833
v 0.0 0.0114241 -0.06929787
v 0.0 0.06304824 -0.05172359
v 0.0 0.0114241 -0.06929787
vn 1e-06 0.32226 -0.946651
vn 0.0 0.32226 -0.946651
vn 0.0 0.32226 -0.946651
vn 0.0 0.322261 -0.946651
vn 2e-06 0.32226 -0.946651
vn -0.0 0.32226 -0.946651
vn 7e-06 0.322258 -0.946652
vn 2e-06 0.32226 -0.946651
vn 1e-06 0.322259 -0.946652
vn -0.0 0.32226 -0.946651
vn -1e-06 0.322265 -0.946649
vn -0.0 0.322265 -0.946649
vn 0.0 0.322266 -0.946649
vn 0.0 0.322266 -0.946649
vn -0.0 0.322267 -0.946649
vn -0.0 0.322267 -0.946649
vn -0.0 0.322266 -0.946649
vn -0.0 0.322266 -0.946649
vn 0.0 0.322266 -0.946649
vn -0.0 0.322266 -0.946649
vn -1e-06 0.322266 -0.946649
vn -0.0 0.322266 -0.946649
vn -0.0 0.322266 -0.946649
vn -1e-06 0.322266 -0.946649
vn 0.0 0.322265 -0.946649
vn 1e-06 0.322265 -0.946649
vn -1e-06 0.322267 -0.946649
vn -1e-06 0.322266 -0.946649
vn 7e-06 0.322262 -0.94665
vn 1.4e-05 0.322262 -0.946651
vn -1.6e-05 0.322276 -0.946646
vn 7e-06 0.322262 -0.94665
vn 2.9e-05 0.322276 -0.946646
vn 1.4e-05 0.322262 -0.946651
vn -3e-06 0.32226 -0.946651
vn -7e-06 0.322267 -0.946649
vn -1.9e-05 0.322274 -0.946647
vn -1.7e-05 0.322253 -0.946653
vn -0.0 0.32226 -0.946651
vn -1e-06 0.32226 -0.946651
vn 0.0 0.32226 -0.946651
vn -2e-06 0.32226 -0.946651
vn 0.0 0.32226 -0.946651
vn -2e-06 0.32226 -0.946651
vn -1e-06 0.322259 -0.946652
vn -7e-06 0.322258 -0.946652
vn 1e-06 0.322265 -0.946649
vn -0.0 0.322266 -0.946649
vn 0.0 0.322265 -0.946649
vn -0.0 0.322266 -0.946649
vn 0.0 0.322267 -0.946649
vn 0.0 0.322267 -0.946649
vn 0.0 0.322266 -0.946649
vn -0.0 0.322266 -0.946649
vn -0.0 0.322266 -0.946649
vn 0.0 0.322266 -0.946649
vn 0.0 0.322266 -0.946649
vn 1e-06 0.322266 -0.946649
vn -1e-06 0.322266 -0.946649
vn 1e-06 0.322266 -0.946649
vn -0.0 0.322265 -0.946649
vn 0.0 0.322266 -0.946649
vn 1e-06 0.322266 -0.946649
vn 1e-06 0.322267 -0.946649
vn -1.4e-05 0.322262 -0.94665
vn -7e-06 0.322262 -0.94665
vn 1.6e-05 0.322276 -0.946646
vn -2.9e-05 0.322276 -0.946646
vn -7e-06 0.322262 -0.94665
vn -1.4e-05 0.322262 -0.94665
vn 7e-06 0.322267 -0.946649
vn 3e-06 0.32226 -0.946651
vn 1.7e-05 0.322253 -0.946654
vn 1.9e-05 0.322274 -0.946647
vn 0.0 0.322266 -0.946649
vn 1e-06 0.322266 -0.946649
vn -0.0 0.322266 -0.946649
vn -1e-06 0.322266 -0.946649
vn -2e-06 0.322266 -0.946649
vn 0.0 0.322265 -0.946649
vn 2e-06 0.322266 -0.946649
vt 0.548479 0.091871
vt 0.541327 0.092582
vt 0.545691 0.070629
vt 0.541327 0.070629
vt 0.55536 0.08979
vt 0.550415 0.070629
vt 0.729859 0.221146
vt 0.643413 0.267868
vt 0.65074 0.00546
vt 0.574885 0.00546
vt 0.56746 0.055912
vt 0.577984 0.055913
vt 0.56747 0.061113
vt 0.577276 0.063063
vt 0.577271 0.048763
vt 0.567451 0.050717
vt 0.550412 0.041198
vt 0.555351 0.022056
vt 0.555983 0.041198
vt 0.561683 0.025447
vt 0.57519 0.041886
vt 0.567441 0.045096
vt 0.561724 0.041198
vt 0.567242 0.029998
vt 0.567434 0.041198
vt 0.571795 0.035554
vt 0.571795 0.035554
vt 0.567434 0.041198
vt 0.80539 0.158611
vt 0.728913 0.00546
vt 0.571807 0.076278
vt 0.567254 0.081839
vt 0.567487 0.070629
vt 0.561729 0.070629
vt 0.56748 0.066746
vt 0.575198 0.069942
vt 0.571807 0.076278
vt 0.567487 0.070629
vt 0.536963 0.070629
vt 0.534175 0.091871
vt 0.532239 0.070629
vt 0.527295 0.08979
vt 0.505223 0.00546
vt 0.436866 0.267868
vt 0.429369 0.00546
vt 0.350391 0.221146
vt 0.515194 0.055912
vt 0.515184 0.061113
vt 0.504669 0.055913
vt 0.505378 0.063063
vt 0.515203 0.050717
vt 0.505383 0.048763
vt 0.532242 0.041198
vt 0.526671 0.041198
vt 0.527303 0.022056
vt 0.520971 0.025447
vt 0.515213 0.045096
vt 0.507464 0.041886
vt 0.510859 0.035554
vt 0.515412 0.029998
vt 0.51522 0.041198
vt 0.52093 0.041198
vt 0.51522 0.041198
vt 0.510859 0.035554
vt 0.351196 0.00546
vt 0.274818 0.158611
vt 0.510847 0.076278
vt 0.515167 0.070629
vt 0.5154 0.081839
vt 0.520925 0.070629
vt 0.507455 0.069942
vt 0.515174 0.066746
vt 0.515167 0.070629
vt 0.510847 0.076278
vt 0.54569 0.041198
vt 0.548475 0.019977
vt 0.536964 0.041198
vt 0.534179 0.019977
vt 0.541327 0.019268
vt 0.541327 0.041198
vt 0.541327 0.019268
f 1/1/1 2/2/2 3/3/3
f 3/3/3 2/2/2 4/4/4
f 5/5/5 1/1/1 6/6/6
f 6/6/6 1/1/1 3/3/3
f 7/7/7 8/8/8 9/9/9
f 9/9/9 8/8/8 10/10/10
f 11/11/11 12/12/12 13/13/13
f 13/13/13 12/12/12 14/14/14
f 15/15/15 12/12/12 16/16/16
f 16/16/16 12/12/12 11/11/11
f 17/17/17 18/18/18 19/19/19
f 19/19/19 18/18/18 20/20/20
f 21/21/21 15/15/15 22/22/22
f 22/22/22 15/15/15 16/16/16
f 23/23/23 24/24/24 25/25/25
f 25/25/25 24/24/24 26/26/26
f 19/19/19 20/20/20 23/23/23
f 23/23/23 20/20/20 24/24/24
f 27/27/27 21/21/21 28/28/28
f 28/28/28 21/21/21 22/22/22
f 29/29/29 7/7/7 30/30/30
f 30/30/30 7/7/7 9/9/9
f 31/31/31 32/32/32 33/33/33
f 33/33/33 32/32/32 34/34/34
f 13/13/13 14/14/14 35/35/35
f 35/35/35 14/14/14 36/36/36
f 37/37/37 38/38/38 36/36/36
f 36/36/36 38/38/38 35/35/35
f 4/4/4 2/2/2 39/39/39
f 39/39/39 2/2/2 40/40/40
f 39/39/39 40/40/40 41/41/41
f 41/41/41 40/40/40 42/42/42
f 43/43/43 44/44/44 45/45/45
f 45/45/45 44/44/44 46/46/46
f 47/47/47 48/48/48 49/49/49
f 49/49/49 48/48/48 50/50/50
f 47/47/47 49/49/49 51/51/51
f 51/51/51 49/49/49 52/52/52
f 53/53/53 54/54/54 55/55/55
f 55/55/55 54/54/54 56/56/56
f 51/51/51 52/52/52 57/57/57
f 57/57/57 52/52/52 58/58/58
f 59/59/59 60/60/60 61/61/61
f 61/61/61 60/60/60 62/62/62
f 60/60/60 56/56/56 62/62/62
f 62/62/62 56/56/56 54/54/54
f 57/57/57 58/58/58 63/63/63
f 63/63/63 58/58/58 64/64/64
f 45/45/45 46/46/46 65/65/65
f 65/65/65 46/46/46 66/66/66
f 67/67/67 68/68/68 69/69/69
f 69/69/69 68/68/68 70/70/70
f 71/71/71 50/50/50 72/72/72
f 72/72/72 50/50/50 48/48/48
f 72/72/72 73/73/73 71/71/71
f 71/71/71 73/73/73 74/74/74
f 75/75/75 76/76/76 17/17/17
f 17/17/17 76/76/76 18/18/18
f 77/77/77 53/53/53 78/78/78
f 78/78/78 53/53/53 55/55/55
f 78/78/78 79/79/79 77/77/77
f 77/77/77 79/79/79 80/80/80
f 80/80/80 81/81/81 75/75/75
f 75/75/75 81/81/81 76/76/76
